# xmcd CD database file
#
# Track frame offsets:
#	187
#	4127
#	24290
#	47012
#	71717
#	92315
#	107387
#	110567
#	130115
#	155517
#	175820
#	198750
#	216790
#	233660
#	237430
#	251327
#
# Disc length: 3653 seconds
#
# Revision: 2
# Processed by: cddbd v1.5.1PL2 Copyright (c) Steve Scherf et al.
# Submitted via: CDex 1.51
#
DISCID=c20e4310
DTITLE=Various Artist - ＥＬＥＭＥＮＴＳ　ＯＦ　ＬＯＶＥ
DYEAR=9704
DGENRE=Jazz
TTITLE0=α−ＳＴＡＴＩＯＮ/Ｊｉｎｇｌｅ　Ｂａｌｌａｄ　Ｔｙｐｅ
TTITLE1=マスターズ・オブ・ファンク/クール・ライク・オーティス
TTITLE2=プリズマチカ/ガロタ・デ・イパネマ
TTITLE3=エレメンツ/イン・ハー・エレメント
TTITLE4=メアリー・ダン/ソング・オブ・デ・ダナン
TTITLE5=ベレーザ/フォーエバー
TTITLE6=α−ＳＴＡＴＩＯＮ/Ｊｉｎｇｌｅ　Ｇｏｓｐｅｌ　Ｔｙｐｅ
TTITLE7=マスターズ・オブ・ファンク/アップ・タウン・スラング
TTITLE8=ソニア/ネバー・ニュー・ラブ・ライク・ジス・ビフォー
TTITLE9=プリズマチカ/リオ
TTITLE10=エレメンツ/オブ・ザ・サン
TTITLE11=ロビー・ダンジー/アウェイ
TTITLE12=ソニア/イン・エブリウェイ
TTITLE13=α−ＳＴＡＴＩＯＮ/Ｊｉｎｇｌｅ　Ｊａｚｚ　Ｔｙｐｅ
TTITLE14=ベレーザ/タイム・アフター・タイム
TTITLE15=ＵＫ・オーディオ・ソウル/ドゥー・ドゥー
EXTD=YEAR: 9704
EXTT0=
EXTT1=
EXTT2=
EXTT3=
EXTT4=
EXTT5=
EXTT6=
EXTT7=
EXTT8=
EXTT9=
EXTT10=
EXTT11=
EXTT12=
EXTT13=
EXTT14=
EXTT15=
PLAYORDER=
